<svg xmlns="http://www.w3.org/2000/svg" width="20" height="21" viewBox="0 0 20 21" fill="none">
  <g clip-path="url(#clip0_378_1418)">
    <path d="M10 0.5C4.48 0.5 0 4.98 0 10.5C0 16.02 4.48 20.5 10 20.5C15.52 20.5 20 16.02 20 10.5C20 4.98 15.52 0.5 10 0.5ZM10 18.9C5.368 18.9 1.6 15.132 1.6 10.5C1.6 5.868 5.368 2.1 10 2.1C14.632 2.1 18.4 5.868 18.4 10.5C18.4 15.132 14.632 18.9 10 18.9Z" fill="#D16F27"/>
    <path d="M10 18.9C14.6392 18.9 18.4 15.1392 18.4 10.5C18.4 5.86078 14.6392 2.09998 10 2.09998C5.36081 2.09998 1.60001 5.86078 1.60001 10.5C1.60001 15.1392 5.36081 18.9 10 18.9Z" fill="#FBA95D"/>
    <path d="M6.40001 9.30002C7.06275 9.30002 7.60001 8.76277 7.60001 8.10002C7.60001 7.43728 7.06275 6.90002 6.40001 6.90002C5.73727 6.90002 5.20001 7.43728 5.20001 8.10002C5.20001 8.76277 5.73727 9.30002 6.40001 9.30002Z" fill="#293241"/>
    <path d="M13.6 9.30002C14.2627 9.30002 14.8 8.76277 14.8 8.10002C14.8 7.43728 14.2627 6.90002 13.6 6.90002C12.9373 6.90002 12.4 7.43728 12.4 8.10002C12.4 8.76277 12.9373 9.30002 13.6 9.30002Z" fill="#293241"/>
    <path d="M13.2 14.748C13.032 14.748 12.864 14.692 12.72 14.588C11.152 13.396 8.85599 13.396 7.28799 14.588C6.93599 14.852 6.43199 14.788 6.16799 14.436C5.90399 14.084 5.96799 13.58 6.31999 13.316C7.38399 12.508 8.65599 12.076 10.008 12.076C11.36 12.076 12.632 12.508 13.696 13.316C14.048 13.58 14.112 14.084 13.848 14.436C13.688 14.644 13.448 14.748 13.208 14.748H13.2Z" fill="#293241"/>
  </g>
  <defs>
    <clipPath id="clip0_378_1418">
      <rect width="20" height="20" fill="white" transform="translate(0 0.5)"/>
    </clipPath>
  </defs>
</svg>