<svg xmlns="http://www.w3.org/2000/svg" width="20" height="21" viewBox="0 0 20 21" fill="none">
  <g clip-path="url(#clip0_378_1246)">
    <path d="M10 0.5C4.48 0.5 0 4.98 0 10.5C0 16.02 4.48 20.5 10 20.5C15.52 20.5 20 16.02 20 10.5C20 4.98 15.52 0.5 10 0.5ZM10 18.9C5.368 18.9 1.6 15.132 1.6 10.5C1.6 5.868 5.368 2.1 10 2.1C14.632 2.1 18.4 5.868 18.4 10.5C18.4 15.132 14.632 18.9 10 18.9Z" fill="#22603B"/>
    <path d="M10 18.9C14.6392 18.9 18.4 15.1392 18.4 10.5C18.4 5.86078 14.6392 2.09998 10 2.09998C5.36081 2.09998 1.6 5.86078 1.6 10.5C1.6 15.1392 5.36081 18.9 10 18.9Z" fill="#49C76C"/>
    <path d="M6.4 9.30002C7.06274 9.30002 7.6 8.76277 7.6 8.10002C7.6 7.43728 7.06274 6.90002 6.4 6.90002C5.73726 6.90002 5.2 7.43728 5.2 8.10002C5.2 8.76277 5.73726 9.30002 6.4 9.30002Z" fill="#293241"/>
    <path d="M13.6 9.30002C14.2627 9.30002 14.8 8.76277 14.8 8.10002C14.8 7.43728 14.2627 6.90002 13.6 6.90002C12.9373 6.90002 12.4 7.43728 12.4 8.10002C12.4 8.76277 12.9373 9.30002 13.6 9.30002Z" fill="#293241"/>
    <path d="M13.952 12.252C13.552 12.06 13.08 12.22 12.88 12.62C12.336 13.732 11.232 14.42 10 14.42C8.768 14.42 7.664 13.732 7.12 12.62C6.92 12.22 6.448 12.06 6.048 12.252C5.648 12.444 5.488 12.924 5.68 13.324C6.496 14.98 8.152 16.012 10 16.012C11.848 16.012 13.504 14.98 14.32 13.324C14.512 12.924 14.352 12.452 13.952 12.252Z" fill="#293241"/>
  </g>
  <defs>
    <clipPath id="clip0_378_1246">
      <rect width="20" height="20" fill="white" transform="translate(0 0.5)"/>
    </clipPath>
  </defs>
</svg>