<svg xmlns="http://www.w3.org/2000/svg" width="20" height="21" viewBox="0 0 20 21" fill="none">
  <g clip-path="url(#clip0_378_1368)">
    <path d="M10 0.5C4.48 0.5 0 4.98 0 10.5C0 16.02 4.48 20.5 10 20.5C15.52 20.5 20 16.02 20 10.5C20 4.98 15.52 0.5 10 0.5ZM10 18.9C5.368 18.9 1.6 15.132 1.6 10.5C1.6 5.868 5.368 2.1 10 2.1C14.632 2.1 18.4 5.868 18.4 10.5C18.4 15.132 14.632 18.9 10 18.9Z" fill="#C0090E"/>
    <path d="M10 18.9C14.6392 18.9 18.4 15.1392 18.4 10.5C18.4 5.86078 14.6392 2.09998 10 2.09998C5.36081 2.09998 1.60001 5.86078 1.60001 10.5C1.60001 15.1392 5.36081 18.9 10 18.9Z" fill="#F9575C"/>
    <path d="M6.40001 9.30002C7.06275 9.30002 7.60001 8.76277 7.60001 8.10002C7.60001 7.43728 7.06275 6.90002 6.40001 6.90002C5.73727 6.90002 5.20001 7.43728 5.20001 8.10002C5.20001 8.76277 5.73727 9.30002 6.40001 9.30002Z" fill="#293241"/>
    <path d="M13.6 9.30002C14.2627 9.30002 14.8 8.76277 14.8 8.10002C14.8 7.43728 14.2627 6.90002 13.6 6.90002C12.9373 6.90002 12.4 7.43728 12.4 8.10002C12.4 8.76277 12.9373 9.30002 13.6 9.30002Z" fill="#293241"/>
    <path d="M13.6 15.212C13.304 15.212 13.024 15.044 12.88 14.764C12.336 13.652 11.232 12.964 10 12.964C8.768 12.964 7.664 13.652 7.12 14.764C6.928 15.156 6.448 15.324 6.048 15.124C5.648 14.932 5.488 14.452 5.688 14.052C6.504 12.396 8.16 11.364 10.008 11.364C11.856 11.364 13.512 12.396 14.328 14.052C14.528 14.452 14.36 14.924 13.968 15.124C13.856 15.18 13.736 15.204 13.616 15.204L13.6 15.212Z" fill="#293241"/>
  </g>
  <defs>
    <clipPath id="clip0_378_1368">
      <rect width="20" height="20" fill="white" transform="translate(0 0.5)"/>
    </clipPath>
  </defs>
</svg>